# xmcd
# Copyright (C) 1995-1998 Ti Kan
#
# Track frame offsets:
#       150
#       25963
#       46787
#       58930
#       77620
#       97791
#       111576
#       131986
#       149082
#       160795
#       172781
#       191554
#       213646
#
# Disc length: 3201 seconds
#
# Revision: 0
# Processed by: cddbd v1.5.2PL0 Copyright (c) Steve Scherf et al.
# Submitted via: CD-Transfer v1.0
#
DISCID=b80c7f0d
DTITLE=Elektrodalmacija - 
DYEAR=09
DGENRE=
TTITLE0=Freedom '90
TTITLE1=Nightshift
TTITLE2=Everybody Loves Somebody
TTITLE3=I Can See Clearly Now
TTITLE4=Tears In Heaven
TTITLE5=My Special Prayer
TTITLE6=Oh, Happy Day
TTITLE7=Blue Bayou
TTITLE8=Respect
TTITLE9=Born To Lose
TTITLE10=Lean On Me
TTITLE11=Somebody To Love
TTITLE12=Bohemian Rapsody
EXTD=
EXTT0=
EXTT1=
EXTT2=
EXTT3=
EXTT4=
EXTT5=
EXTT6=
EXTT7=
EXTT8=
EXTT9=
EXTT10=
EXTT11=
EXTT12=
PLAYORDER=
